<svg xmlns="http://www.w3.org/2000/svg" version="1.1" xmlns:xlink="http://www.w3.org/1999/xlink" xmlns:svgjs="http://svgjs.dev/svgjs" width="1440" height="560" preserveAspectRatio="none" viewBox="0 0 1440 560"><g mask="url(&quot;#SvgjsMask1075&quot;)" fill="none"><rect width="1440" height="560" x="0" y="0" fill="rgba(86, 99, 109, 1)"></rect><path d="M0,608.896C121.506,610.285,257.346,623.87,351.836,547.467C445.045,472.1,431.922,329.026,481.238,219.774C530.257,111.18,638.203,27.028,640.531,-92.094C642.968,-216.757,577.429,-335.394,493.899,-427.966C411.289,-519.519,297.009,-574.037,177.664,-605.069C60.92,-635.425,-61.775,-638.473,-176.875,-602.38C-290.692,-566.689,-388.061,-494.086,-465.522,-403.378C-542.593,-313.127,-602.053,-206.417,-615.686,-88.522C-629.12,27.651,-586.766,139.438,-540.722,246.939C-493.7,356.723,-445.951,473.047,-346.704,539.482C-246.736,606.4,-120.29,607.521,0,608.896" fill="#454f57"></path><path d="M1440 1162.817C1549.926 1148.287 1620.651 1046.189 1714.213 986.683 1808.349 926.812 1933.525 907.149 1991.682 811.9449999999999 2051.635 713.8009999999999 2031.74 590.575 2026.3609999999999 475.694 2020.45 349.454 2035.596 210.822 1958.835 110.42700000000002 1881.0230000000001 8.657000000000039 1745.6190000000001-27.119000000000028 1620.585-55.01700000000005 1501.588-81.56799999999998 1370.989-100.34100000000001 1262.364-44.97199999999998 1158.699 7.869000000000028 1137.642 144.06599999999997 1060 230.728 980.452 319.517 829.967 352.33799999999997 802.479 468.33799999999997 775.104 583.863 871.39 689.342 926.394 794.556 978.47 894.1700000000001 1023.5260000000001 1000.404 1114.876 1065.903 1208.68 1133.162 1325.57 1177.942 1440 1162.817" fill="#677783"></path></g><defs><mask id="SvgjsMask1075"><rect width="1440" height="560" fill="#ffffff"></rect></mask></defs></svg>