<svg xmlns="http://www.w3.org/2000/svg" version="1.1" xmlns:xlink="http://www.w3.org/1999/xlink" xmlns:svgjs="http://svgjs.dev/svgjs" width="1440" height="560" preserveAspectRatio="none" viewBox="0 0 1440 560"><g mask="url(&quot;#SvgjsMask1071&quot;)" fill="none"><rect width="1440" height="560" x="0" y="0" fill="rgba(86, 99, 109, 1)"></rect><path d="M0,523.908C96.21,534.12,173.938,449.265,251.942,392.029C325.493,338.059,394.047,279.739,440.091,200.983C489.775,116.001,540.865,21.675,525.297,-75.526C509.789,-172.356,432.581,-246.479,358.191,-310.375C291.27,-367.855,206.716,-391.323,123.509,-420.633C35.391,-451.673,-51.179,-504.302,-142.971,-486.913C-237.692,-468.969,-313.741,-399.415,-376.189,-325.969C-438.232,-253,-475.87,-164.932,-496.302,-71.357C-517.951,27.793,-553.35,142.586,-496.916,226.934C-440.145,311.786,-307.4,289.589,-219.766,341.962C-136.443,391.759,-96.527,513.663,0,523.908" fill="#454f57"></path><path d="M1440 1080.417C1547.375 1095.772 1655.95 1091.873 1757.749 1054.4279999999999 1877.542 1010.365 2009.829 960.179 2071.181 848.251 2133.361 734.812 2114.2690000000002 592.607 2079.135 468.106 2046.652 352.998 1956.153 270.861 1881.805 177.17399999999998 1803.726 78.786 1753.112-60.54600000000005 1632.308-94.94200000000001 1511.545-129.327 1395.253-37.325000000000045 1277.031 4.977999999999952 1166.359 44.57899999999995 1049.451 67.45600000000002 961.2660000000001 145.17399999999998 865.246 229.79700000000003 784.406 336.68 758.45 462.008 731.737 590.99 732.877 742.925 816.368 844.803 898.521 945.049 1054.495 925.3910000000001 1175.739 971.198 1266.745 1005.581 1343.696 1066.645 1440 1080.417" fill="#677783"></path></g><defs><mask id="SvgjsMask1071"><rect width="1440" height="560" fill="#ffffff"></rect></mask></defs></svg>