<svg xmlns="http://www.w3.org/2000/svg" version="1.1" xmlns:xlink="http://www.w3.org/1999/xlink" xmlns:svgjs="http://svgjs.dev/svgjs" width="1440" height="560" preserveAspectRatio="none" viewBox="0 0 1440 560"><g mask="url(&quot;#SvgjsMask1058&quot;)" fill="none"><rect width="1440" height="560" x="0" y="0" fill="rgba(74, 102, 119, 1)"></rect><path d="M0,636.318C116.865,628.19,189.152,510.13,281.606,438.188C364.699,373.53,465.484,328.084,515.309,235.334C566.682,139.702,594.482,22.471,560.276,-80.556C527.342,-179.751,402.649,-210.894,339.504,-294.182C269.64,-386.332,274.622,-534.729,173.462,-590.758C71.414,-647.278,-57.3,-609.204,-169.091,-575.871C-280.539,-542.64,-389.819,-491.567,-462.821,-401.037C-534.617,-312.001,-567.228,-195.991,-567.647,-81.615C-568.035,24.325,-509.587,116.257,-465.071,212.391C-420.807,307.981,-385.808,408.226,-307.957,479.19C-221.028,558.429,-117.341,644.479,0,636.318" fill="#3b525f"></path><path d="M1440 1072.664C1532.808 1055.512 1606.99 993.0409999999999 1679.378 932.48 1743.99 878.424 1789.645 811.106 1836.399 741.029 1892.225 657.356 1986.069 582.792 1979.659 482.409 1973.2469999999998 382.001 1881.476 308.999 1804.661 244.019 1736.109 186.029 1654.083 147.57299999999998 1565.625 132.16199999999998 1483.621 117.875 1402.959 138.48000000000002 1322.557 160.027 1240.279 182.07600000000002 1151.5729999999999 197.515 1092.556 258.938 1032.359 321.589 1016.3589999999999 411.453 999.153 496.616 981.034 586.302 967.595 676.748 990.2339999999999 765.4010000000001 1015.881 865.8330000000001 1050.509 974.4100000000001 1136.098 1032.8809999999999 1222.201 1091.703 1337.459 1091.614 1440 1072.664" fill="#597a8f"></path></g><defs><mask id="SvgjsMask1058"><rect width="1440" height="560" fill="#ffffff"></rect></mask></defs></svg>